{
  "accessors": [
    {
      "bufferView": 1,
      "componentType": 5126,
      "count": 56,
      "max": [
        0.43547999858856201,
        7.2687201499938965,
        0.33410000801086426
      ],
      "min": [
        -0.94404000043869019,
        -0.70746999979019165,
        0.1731799989938736
      ],
      "type": "VEC3"
    },
    {
      "bufferView": 1,
      "byteOffset": 672,
      "componentType": 5126,
      "count": 56,
      "max": [
        0,
        0.097760312259197235,
        1
      ],
      "min": [
        -0.9999997615814209,
        -0.047700084745883942,
        -1
      ],
      "type": "VEC3"
    },
    {
      "bufferView": 0,
      "componentType": 5125,
      "count": 108,
      "max": [
        55
      ],
      "min": [
        0
      ],
      "type": "SCALAR"
    },
    {
      "bufferView": 1,
      "byteOffset": 1344,
      "componentType": 5126,
      "count": 106,
      "max": [
        0.63099002838134766,
        7.2687201499938965,
        0.33410000801086426
      ],
      "min": [
        -0.85510998964309692,
        -0.67659997940063477,
        0.1731799989938736
      ],
      "type": "VEC3"
    },
    {
      "bufferView": 1,
      "byteOffset": 2616,
      "componentType": 5126,
      "count": 106,
      "max": [
        0.99957478046417236,
        0.86060070991516113,
        0.92703753709793091
      ],
      "min": [
        0.37480902671813965,
        0.010329965502023697,
        -0.92703753709793091
      ],
      "type": "VEC3"
    },
    {
      "bufferView": 0,
      "byteOffset": 432,
      "componentType": 5125,
      "count": 120,
      "max": [
        105
      ],
      "min": [
        0
      ],
      "type": "SCALAR"
    },
    {
      "bufferView": 1,
      "byteOffset": 3888,
      "componentType": 5126,
      "count": 240,
      "max": [
        0.93064999580383301,
        -0.86369001865386963,
        0.50727999210357666
      ],
      "min": [
        -1.0786999464035034,
        -6.1347198486328125,
        0
      ],
      "type": "VEC3"
    },
    {
      "bufferView": 1,
      "byteOffset": 6768,
      "componentType": 5126,
      "count": 240,
      "max": [
        0.99998188018798828,
        0.36505141854286194,
        1
      ],
      "min": [
        -0.99889117479324341,
        -0.13131019473075867,
        -1
      ],
      "type": "VEC3"
    },
    {
      "bufferView": 0,
      "byteOffset": 912,
      "componentType": 5125,
      "count": 312,
      "max": [
        239
      ],
      "min": [
        0
      ],
      "type": "SCALAR"
    },
    {
      "bufferView": 1,
      "byteOffset": 9648,
      "componentType": 5126,
      "count": 210,
      "max": [
        1.8279900550842285,
        -0.52177000045776367,
        0.54355001449584961
      ],
      "min": [
        -1.881119966506958,
        -6.6391501426696777,
        -0.03627999871969223
      ],
      "type": "VEC3"
    },
    {
      "bufferView": 1,
      "byteOffset": 12168,
      "componentType": 5126,
      "count": 210,
      "max": [
        0.99801415205001831,
        0.99969488382339478,
        1
      ],
      "min": [
        -0.99761044979095459,
        -0.99969464540481567,
        -1
      ],
      "type": "VEC3"
    },
    {
      "bufferView": 0,
      "byteOffset": 2160,
      "componentType": 5125,
      "count": 372,
      "max": [
        209
      ],
      "min": [
        0
      ],
      "type": "SCALAR"
    },
    {
      "bufferView": 1,
      "byteOffset": 14688,
      "componentType": 5126,
      "count": 800,
      "max": [
        1.3355599641799927,
        1.3355599641799927,
        0.6138799786567688
      ],
      "min": [
        -1.3355599641799927,
        -1.3355599641799927,
        -1.0702400207519531
      ],
      "type": "VEC3"
    },
    {
      "bufferView": 1,
      "byteOffset": 24288,
      "componentType": 5126,
      "count": 800,
      "max": [
        0.99518442153930664,
        0.99518442153930664,
        0.74751430749893188
      ],
      "min": [
        -0.99518442153930664,
        -0.99518442153930664,
        -1
      ],
      "type": "VEC3"
    },
    {
      "bufferView": 0,
      "byteOffset": 3648,
      "componentType": 5125,
      "count": 1242,
      "max": [
        799
      ],
      "min": [
        0
      ],
      "type": "SCALAR"
    },
    {
      "bufferView": 1,
      "byteOffset": 33888,
      "componentType": 5126,
      "count": 288,
      "max": [
        0.2056100070476532,
        0.2056100070476532,
        0.8708299994468689
      ],
      "min": [
        -0.2056100070476532,
        -0.2056100070476532,
        0.6138799786567688
      ],
      "type": "VEC3"
    },
    {
      "bufferView": 1,
      "byteOffset": 37344,
      "componentType": 5126,
      "count": 288,
      "max": [
        0.92148119211196899,
        0.92148119211196899,
        1
      ],
      "min": [
        -0.92148119211196899,
        -0.92148119211196899,
        0.3776681125164032
      ],
      "type": "VEC3"
    },
    {
      "bufferView": 0,
      "byteOffset": 8616,
      "componentType": 5125,
      "count": 474,
      "max": [
        287
      ],
      "min": [
        0
      ],
      "type": "SCALAR"
    },
    {
      "bufferView": 1,
      "byteOffset": 40800,
      "componentType": 5126,
      "count": 320,
      "max": [
        1.3867700099945068,
        1.3867700099945068,
        -0.14824999868869781
      ],
      "min": [
        -1.3867700099945068,
        -1.3867700099945068,
        -0.55425000190734863
      ],
      "type": "VEC3"
    },
    {
      "bufferView": 1,
      "byteOffset": 44640,
      "componentType": 5126,
      "count": 320,
      "max": [
        1,
        1,
        0.98935538530349731
      ],
      "min": [
        -1,
        -1,
        -0.98935520648956299
      ],
      "type": "VEC3"
    },
    {
      "bufferView": 0,
      "byteOffset": 10512,
      "componentType": 5125,
      "count": 480,
      "max": [
        319
      ],
      "min": [
        0
      ],
      "type": "SCALAR"
    },
    {
      "bufferView": 2,
      "componentType": 5126,
      "count": 99,
      "max": [
        4.125
      ],
      "min": [
        0.041669998317956924
      ],
      "type": "SCALAR"
    },
    {
      "bufferView": 4,
      "componentType": 5126,
      "count": 99,
      "max": [
        0,
        0,
        0.99993997812271118,
        1
      ],
      "min": [
        0,
        0,
        -0.99977999925613403,
        0.01080000028014183
      ],
      "type": "VEC4"
    },
    {
      "bufferView": 2,
      "byteOffset": 396,
      "componentType": 5126,
      "count": 99,
      "max": [
        4.125
      ],
      "min": [
        0.041669998317956924
      ],
      "type": "SCALAR"
    },
    {
      "bufferView": 3,
      "componentType": 5126,
      "count": 99,
      "max": [
        0.0022299999836832285,
        0,
        10.078760147094727
      ],
      "min": [
        0.0022299999836832285,
        0,
        8.3187599182128906
      ],
      "type": "VEC3"
    },
    {
      "bufferView": 2,
      "byteOffset": 792,
      "componentType": 5126,
      "count": 99,
      "max": [
        4.125
      ],
      "min": [
        0.041669998317956924
      ],
      "type": "SCALAR"
    },
    {
      "bufferView": 4,
      "byteOffset": 1584,
      "componentType": 5126,
      "count": 99,
      "max": [
        0.70708000659942627,
        0.70710998773574829,
        0.70708000659942627,
        0.70708000659942627
      ],
      "min": [
        -0.57451999187469482,
        -0.39399001002311707,
        -0.70692998170852661,
        0.0065600001253187656
      ],
      "type": "VEC4"
    }
  ],
  "animations": [
    {
      "channels": [
        {
          "sampler": 0,
          "target": {
            "node": 17,
            "path": "rotation"
          }
        },
        {
          "sampler": 1,
          "target": {
            "node": 5,
            "path": "translation"
          }
        },
        {
          "sampler": 2,
          "target": {
            "node": 5,
            "path": "rotation"
          }
        }
      ],
      "name": "Take 01",
      "samplers": [
        {
          "input": 21,
          "interpolation": "LINEAR",
          "output": 22
        },
        {
          "input": 23,
          "interpolation": "LINEAR",
          "output": 24
        },
        {
          "input": 25,
          "interpolation": "LINEAR",
          "output": 26
        }
      ]
    }
  ],
  "asset": {
    "extras": {
      "author": "DUCK_THE_KILLER (https://sketchfab.com/DUCK_THE_KILLER)",
      "license": "CC-BY-4.0 (http://creativecommons.org/licenses/by/4.0/)",
      "source": "https://sketchfab.com/models/b563b9f902394de2bbb9ca339d18b69f",
      "title": "Knife of many"
    },
    "generator": "Sketchfab-3.18.6",
    "version": "2.0"
  },
  "bufferViews": [
    {
      "buffer": 0,
      "byteLength": 12432,
      "byteOffset": 0,
      "name": "floatBufferViews",
      "target": 34963
    },
    {
      "buffer": 0,
      "byteLength": 48480,
      "byteOffset": 12432,
      "byteStride": 12,
      "name": "floatBufferViews",
      "target": 34962
    },
    {
      "buffer": 0,
      "byteLength": 1188,
      "byteOffset": 60912,
      "name": "floatBufferViews"
    },
    {
      "buffer": 0,
      "byteLength": 1188,
      "byteOffset": 62100,
      "byteStride": 12,
      "name": "floatBufferViews"
    },
    {
      "buffer": 0,
      "byteLength": 3168,
      "byteOffset": 63288,
      "byteStride": 16,
      "name": "floatBufferViews"
    }
  ],
  "buffers": [
    {
      "byteLength": 66456,
      "uri": "scene.bin"
    }
  ],
  "materials": [
    {
      "doubleSided": true,
      "emissiveFactor": [
        0.03426011731123961,
        0.60389749927733538,
        0
      ],
      "name": "Material.008",
      "pbrMetallicRoughness": {
        "baseColorFactor": [
          0.0190503019,
          0.82109590960000001,
          0.0041866897999999998,
          1
        ],
        "metallicFactor": 0.97136364559999999,
        "roughnessFactor": 0.50136362709999993
      }
    },
    {
      "doubleSided": true,
      "emissiveFactor": [
        0,
        0,
        0
      ],
      "name": "Material.006",
      "pbrMetallicRoughness": {
        "baseColorFactor": [
          0.098502606199999995,
          0.083497673300000005,
          0.062509782599999994,
          1
        ],
        "metallicFactor": 0.4259091002,
        "roughnessFactor": 0.59560606989999998
      }
    },
    {
      "doubleSided": true,
      "emissiveFactor": [
        0.011111140517066017,
        1,
        0.0016898410508218269
      ],
      "name": "Material.007",
      "pbrMetallicRoughness": {
        "baseColorFactor": [
          0,
          0.70921219202583397,
          0.087763659621761705,
          1
        ],
        "metallicFactor": 0,
        "roughnessFactor": 1
      }
    },
    {
      "doubleSided": true,
      "emissiveFactor": [
        0,
        0,
        0
      ],
      "name": "Material.001",
      "pbrMetallicRoughness": {
        "baseColorFactor": [
          0.38437432049999998,
          0.30071389679999999,
          0.2106198668,
          1
        ],
        "metallicFactor": 0,
        "roughnessFactor": 0.13772726349999997
      }
    },
    {
      "doubleSided": true,
      "emissiveFactor": [
        0,
        0,
        0
      ],
      "name": "Material.003",
      "pbrMetallicRoughness": {
        "baseColorFactor": [
          0.80000001190000003,
          0.80000001190000003,
          0.80000001190000003,
          1
        ],
        "metallicFactor": 0,
        "roughnessFactor": 0.59999999999999998
      }
    },
    {
      "doubleSided": true,
      "emissiveFactor": [
        0,
        0,
        0
      ],
      "name": "Material.004",
      "pbrMetallicRoughness": {
        "baseColorFactor": [
          0.50706791880000002,
          0.094042032999999997,
          0.064772479199999997,
          1
        ],
        "metallicFactor": 0,
        "roughnessFactor": 0.59999999999999998
      }
    },
    {
      "doubleSided": true,
      "emissiveFactor": [
        0,
        0,
        0
      ],
      "name": "Material.005",
      "pbrMetallicRoughness": {
        "baseColorFactor": [
          0.50706744189999997,
          0.23680602009999999,
          0.0766316056,
          1
        ],
        "metallicFactor": 0,
        "roughnessFactor": 0.59999999999999998
      }
    }
  ],
  "meshes": [
    {
      "name": "Plane_0",
      "primitives": [
        {
          "attributes": {
            "NORMAL": 1,
            "POSITION": 0
          },
          "indices": 2,
          "material": 3,
          "mode": 4
        }
      ]
    },
    {
      "name": "Plane_1",
      "primitives": [
        {
          "attributes": {
            "NORMAL": 4,
            "POSITION": 3
          },
          "indices": 5,
          "material": 4,
          "mode": 4
        }
      ]
    },
    {
      "name": "Plane_2",
      "primitives": [
        {
          "attributes": {
            "NORMAL": 7,
            "POSITION": 6
          },
          "indices": 8,
          "material": 5,
          "mode": 4
        }
      ]
    },
    {
      "name": "Plane_3",
      "primitives": [
        {
          "attributes": {
            "NORMAL": 10,
            "POSITION": 9
          },
          "indices": 11,
          "material": 6,
          "mode": 4
        }
      ]
    },
    {
      "name": "Cylinder_0",
      "primitives": [
        {
          "attributes": {
            "NORMAL": 13,
            "POSITION": 12
          },
          "indices": 14,
          "material": 1,
          "mode": 4
        }
      ]
    },
    {
      "name": "Cylinder_1",
      "primitives": [
        {
          "attributes": {
            "NORMAL": 16,
            "POSITION": 15
          },
          "indices": 17,
          "material": 2,
          "mode": 4
        }
      ]
    },
    {
      "name": "Cylinder.001_0",
      "primitives": [
        {
          "attributes": {
            "NORMAL": 19,
            "POSITION": 18
          },
          "indices": 20,
          "material": 0,
          "mode": 4
        }
      ]
    }
  ],
  "nodes": [
    {
      "children": [
        1
      ],
      "name": "RootNode (gltf orientation matrix)",
      "rotation": [
        -0.70710678118654746,
        -0,
        -0,
        0.70710678118654757
      ]
    },
    {
      "children": [
        2
      ],
      "name": "RootNode (model correction matrix)"
    },
    {
      "children": [
        3,
        5,
        10,
        13,
        15,
        17
      ],
      "name": "Root"
    },
    {
      "children": [
        4
      ],
      "matrix": [
        1,
        0,
        0,
        0,
        0,
        -1,
        0,
        0,
        0,
        -0,
        -1,
        0,
        0.010970000000000002,
        0.012130000000000002,
        1.06985,
        1
      ],
      "name": "Lamp"
    },
    {
      "name": "Lamp"
    },
    {
      "children": [
        6,
        7,
        8,
        9
      ],
      "name": "Plane",
      "rotation": [
        -0.3258112370967865,
        0.62757235765457153,
        0.62757235765457153,
        0.3258112370967865
      ],
      "translation": [
        0.0022299999836832285,
        0,
        8.3187599182128906
      ]
    },
    {
      "mesh": 0,
      "name": "Plane_0"
    },
    {
      "mesh": 1,
      "name": "Plane_1"
    },
    {
      "mesh": 2,
      "name": "Plane_2"
    },
    {
      "mesh": 3,
      "name": "Plane_3"
    },
    {
      "children": [
        11,
        12
      ],
      "matrix": [
        7.79061,
        0,
        0,
        0,
        0,
        7.79061,
        0,
        0,
        0,
        0,
        1.1267500000000001,
        0,
        0,
        0,
        -0.73641000000000001,
        1
      ],
      "name": "Cylinder"
    },
    {
      "mesh": 4,
      "name": "Cylinder_0"
    },
    {
      "mesh": 5,
      "name": "Cylinder_1"
    },
    {
      "children": [
        14
      ],
      "matrix": [
        0.21132000000000001,
        0.79527000000000003,
        0.56823000000000001,
        0,
        -0.96645999999999999,
        0.25681000000000004,
        0,
        0,
        -0.14593000000000003,
        -0.54918,
        0.8228700000000001,
        0,
        0,
        -12.447909999999998,
        17.619610000000002,
        1
      ],
      "name": "Point"
    },
    {
      "name": "Point"
    },
    {
      "children": [
        16
      ],
      "matrix": [
        0.40478999999999998,
        0,
        -0.91440999999999995,
        0,
        0,
        1,
        0,
        0,
        0.91440999999999995,
        0,
        0.40478999999999998,
        0,
        22.731400000000001,
        -1.27565,
        13.385260000000001,
        1
      ],
      "name": "Point.002"
    },
    {
      "name": "Point.002"
    },
    {
      "children": [
        18
      ],
      "name": "Cylinder.001",
      "scale": [
        5.5510201454162598,
        5.5510201454162598,
        0.41435998678207397
      ],
      "translation": [
        0,
        0,
        0.059549998492002487
      ]
    },
    {
      "mesh": 6,
      "name": "Cylinder.001_0"
    }
  ],
  "scene": 0,
  "scenes": [
    {
      "name": "OSG_Scene",
      "nodes": [
        0
      ]
    }
  ]
}

