{
  "accessors": [
    {
      "bufferView": 2,
      "componentType": 5126,
      "count": 21524,
      "max": [
        5.684776782989502,
        5.8868060111999512,
        1.783005952835083
      ],
      "min": [
        -5.6856141090393066,
        -5.6790890693664551,
        0.45001000165939331
      ],
      "type": "VEC3"
    },
    {
      "bufferView": 2,
      "byteOffset": 258288,
      "componentType": 5126,
      "count": 21524,
      "max": [
        0.99985456466674805,
        0.99987733364105225,
        0.99999940395355225
      ],
      "min": [
        -0.99973279237747192,
        -0.99948114156723022,
        -0.99289822578430176
      ],
      "type": "VEC3"
    },
    {
      "bufferView": 3,
      "componentType": 5126,
      "count": 21524,
      "max": [
        0.99999219179153442,
        0.99993026256561279,
        0.99999582767486572,
        1
      ],
      "min": [
        -0.99998116493225098,
        -0.99991869926452637,
        -0.99953395128250122,
        -1
      ],
      "type": "VEC4"
    },
    {
      "bufferView": 1,
      "componentType": 5126,
      "count": 21524,
      "max": [
        0.99279999732971191,
        0.99959999322891235
      ],
      "min": [
        0.0049000000581145287,
        0.042399998754262924
      ],
      "type": "VEC2"
    },
    {
      "bufferView": 0,
      "componentType": 5125,
      "count": 99006,
      "max": [
        21523
      ],
      "min": [
        0
      ],
      "type": "SCALAR"
    },
    {
      "bufferView": 2,
      "byteOffset": 516576,
      "componentType": 5126,
      "count": 16672,
      "max": [
        6.1595001220703125,
        6.1595549583435059,
        0.92083501815795898
      ],
      "min": [
        -6.1595549583435059,
        -6.1595001220703125,
        -0.009937000460922718
      ],
      "type": "VEC3"
    },
    {
      "bufferView": 2,
      "byteOffset": 716640,
      "componentType": 5126,
      "count": 16672,
      "max": [
        0.99979501962661743,
        0.99977856874465942,
        1
      ],
      "min": [
        -0.99978059530258179,
        -0.99979680776596069,
        -0.99999988079071045
      ],
      "type": "VEC3"
    },
    {
      "bufferView": 3,
      "byteOffset": 344384,
      "componentType": 5126,
      "count": 16672,
      "max": [
        0.99991893768310547,
        0.9999886155128479,
        0.9995073676109314,
        1
      ],
      "min": [
        -0.99997031688690186,
        -0.99999302625656128,
        -0.99977952241897583,
        -1
      ],
      "type": "VEC4"
    },
    {
      "bufferView": 1,
      "byteOffset": 172192,
      "componentType": 5126,
      "count": 16672,
      "max": [
        0.74119997024536133,
        0.73960000276565552
      ],
      "min": [
        0.13470000028610229,
        0.13300000131130219
      ],
      "type": "VEC2"
    },
    {
      "bufferView": 0,
      "byteOffset": 396024,
      "componentType": 5125,
      "count": 99360,
      "max": [
        16671
      ],
      "min": [
        0
      ],
      "type": "SCALAR"
    },
    {
      "bufferView": 2,
      "byteOffset": 916704,
      "componentType": 5126,
      "count": 3,
      "max": [
        -2.4189949035644531,
        -0.63893002271652222,
        0.91366702318191528
      ],
      "min": [
        -2.4310300350189209,
        -0.68076497316360474,
        0.8922569751739502
      ],
      "type": "VEC3"
    },
    {
      "bufferView": 2,
      "byteOffset": 916740,
      "componentType": 5126,
      "count": 3,
      "max": [
        0.90651220083236694,
        0.10369855165481567,
        0.61479866504669189
      ],
      "min": [
        0.78789830207824707,
        -0.035199925303459167,
        0.42210569977760315
      ],
      "type": "VEC3"
    },
    {
      "bufferView": 3,
      "byteOffset": 611136,
      "componentType": 5126,
      "count": 3,
      "max": [
        0.47347182035446167,
        -0.59610068798065186,
        -0.64134669303894043,
        1
      ],
      "min": [
        0.33367505669593811,
        -0.60373741388320923,
        -0.72781211137771606,
        1
      ],
      "type": "VEC4"
    },
    {
      "bufferView": 1,
      "byteOffset": 305568,
      "componentType": 5126,
      "count": 3,
      "max": [
        0.69010001420974731,
        0.84490001201629639
      ],
      "min": [
        0.68930000066757202,
        0.84399998188018799
      ],
      "type": "VEC2"
    },
    {
      "bufferView": 0,
      "byteOffset": 793464,
      "componentType": 5125,
      "count": 3,
      "max": [
        2
      ],
      "min": [
        0
      ],
      "type": "SCALAR"
    },
    {
      "bufferView": 2,
      "byteOffset": 916776,
      "componentType": 5126,
      "count": 122,
      "max": [
        5.2789931297302246,
        4.4335289001464844,
        1.5447239875793457
      ],
      "min": [
        -4.4079651832580566,
        -2.9269509315490723,
        0.8399360179901123
      ],
      "type": "VEC3"
    },
    {
      "bufferView": 2,
      "byteOffset": 918240,
      "componentType": 5126,
      "count": 122,
      "max": [
        0.91045528650283813,
        0.9431842565536499,
        0.99823176860809326
      ],
      "min": [
        -0.99126702547073364,
        -0.99752223491668701,
        -0.99900311231613159
      ],
      "type": "VEC3"
    },
    {
      "bufferView": 3,
      "byteOffset": 611184,
      "componentType": 5126,
      "count": 122,
      "max": [
        0.99695044755935669,
        0.99520117044448853,
        0.93759328126907349,
        1
      ],
      "min": [
        -0.99881470203399658,
        -0.90748006105422974,
        -0.88757765293121338,
        -1
      ],
      "type": "VEC4"
    },
    {
      "bufferView": 1,
      "byteOffset": 305592,
      "componentType": 5126,
      "count": 122,
      "max": [
        0.91610002517700195,
        0.99610000848770142
      ],
      "min": [
        0.021199999377131462,
        0.18940000236034393
      ],
      "type": "VEC2"
    },
    {
      "bufferView": 0,
      "byteOffset": 793476,
      "componentType": 5125,
      "count": 384,
      "max": [
        121
      ],
      "min": [
        0
      ],
      "type": "SCALAR"
    }
  ],
  "asset": {
    "extras": {
      "author": "wandandcircles (https://sketchfab.com/wandandcircles)",
      "license": "CC-BY-4.0 (http://creativecommons.org/licenses/by/4.0/)",
      "source": "https://sketchfab.com/models/192c0827324d46d8b956e3f2f1c6a22f",
      "title": "Home Pizza"
    },
    "generator": "Sketchfab-3.20.7",
    "version": "2.0"
  },
  "bufferViews": [
    {
      "buffer": 0,
      "byteLength": 795012,
      "byteOffset": 0,
      "name": "floatBufferViews",
      "target": 34963
    },
    {
      "buffer": 0,
      "byteLength": 306568,
      "byteOffset": 795012,
      "byteStride": 8,
      "name": "floatBufferViews",
      "target": 34962
    },
    {
      "buffer": 0,
      "byteLength": 919704,
      "byteOffset": 1101580,
      "byteStride": 12,
      "name": "floatBufferViews",
      "target": 34962
    },
    {
      "buffer": 0,
      "byteLength": 613136,
      "byteOffset": 2021284,
      "byteStride": 16,
      "name": "floatBufferViews",
      "target": 34962
    }
  ],
  "buffers": [
    {
      "byteLength": 2634420,
      "uri": "scene.bin"
    }
  ],
  "images": [
    {
      "uri": "textures/Home_pizza_baseColor.jpeg"
    },
    {
      "uri": "textures/Home_pizza_metallicRoughness.png"
    },
    {
      "uri": "textures/Material.001_Home_pizza.jpg_baseColor.jpeg"
    },
    {
      "uri": "textures/Material.001_baseColor.jpeg"
    },
    {
      "uri": "textures/Material.001_Home_pizza.jpg.002_baseColor.jpeg"
    }
  ],
  "materials": [
    {
      "doubleSided": true,
      "name": "Home_pizza",
      "pbrMetallicRoughness": {
        "baseColorFactor": [
          1,
          1,
          1,
          1
        ],
        "baseColorTexture": {
          "index": 0,
          "texCoord": 0
        },
        "metallicFactor": 0.5,
        "metallicRoughnessTexture": {
          "index": 1,
          "texCoord": 0
        },
        "roughnessFactor": 1
      }
    },
    {
      "doubleSided": true,
      "emissiveFactor": [
        0,
        0,
        0
      ],
      "name": "Material.001",
      "pbrMetallicRoughness": {
        "baseColorFactor": [
          1,
          1,
          1,
          1
        ],
        "baseColorTexture": {
          "index": 3,
          "texCoord": 0
        },
        "metallicFactor": 0,
        "roughnessFactor": 1
      }
    },
    {
      "doubleSided": true,
      "emissiveFactor": [
        0,
        0,
        0
      ],
      "name": "Material.001_Home_pizza.jpg",
      "pbrMetallicRoughness": {
        "baseColorFactor": [
          1,
          1,
          1,
          1
        ],
        "baseColorTexture": {
          "index": 2,
          "texCoord": 0
        },
        "metallicFactor": 0,
        "roughnessFactor": 1
      }
    },
    {
      "doubleSided": true,
      "emissiveFactor": [
        0,
        0,
        0
      ],
      "name": "Material.001_Home_pizza.jpg.002",
      "pbrMetallicRoughness": {
        "baseColorFactor": [
          1,
          1,
          1,
          1
        ],
        "baseColorTexture": {
          "index": 4,
          "texCoord": 0
        },
        "metallicFactor": 0,
        "roughnessFactor": 1
      }
    }
  ],
  "meshes": [
    {
      "primitives": [
        {
          "attributes": {
            "NORMAL": 1,
            "POSITION": 0,
            "TANGENT": 2,
            "TEXCOORD_0": 3
          },
          "indices": 4,
          "material": 0,
          "mode": 4
        }
      ]
    },
    {
      "primitives": [
        {
          "attributes": {
            "NORMAL": 6,
            "POSITION": 5,
            "TANGENT": 7,
            "TEXCOORD_0": 8
          },
          "indices": 9,
          "material": 1,
          "mode": 4
        }
      ]
    },
    {
      "primitives": [
        {
          "attributes": {
            "NORMAL": 11,
            "POSITION": 10,
            "TANGENT": 12,
            "TEXCOORD_0": 13
          },
          "indices": 14,
          "material": 2,
          "mode": 4
        }
      ]
    },
    {
      "primitives": [
        {
          "attributes": {
            "NORMAL": 16,
            "POSITION": 15,
            "TANGENT": 17,
            "TEXCOORD_0": 18
          },
          "indices": 19,
          "material": 3,
          "mode": 4
        }
      ]
    }
  ],
  "nodes": [
    {
      "children": [
        1
      ],
      "name": "RootNode (gltf orientation matrix)",
      "rotation": [
        -0.70710678118654746,
        -0,
        -0,
        0.70710678118654757
      ]
    },
    {
      "children": [
        2
      ],
      "name": "RootNode (model correction matrix)"
    },
    {
      "children": [
        3,
        4,
        5,
        6
      ],
      "name": "Pizza.obj.cleaner.materialmerger.gles"
    },
    {
      "mesh": 0,
      "name": ""
    },
    {
      "mesh": 1,
      "name": ""
    },
    {
      "mesh": 2,
      "name": ""
    },
    {
      "mesh": 3,
      "name": ""
    }
  ],
  "samplers": [
    {
      "magFilter": 9729,
      "minFilter": 9987,
      "wrapS": 10497,
      "wrapT": 10497
    }
  ],
  "scene": 0,
  "scenes": [
    {
      "name": "OSG_Scene",
      "nodes": [
        0
      ]
    }
  ],
  "textures": [
    {
      "sampler": 0,
      "source": 0
    },
    {
      "sampler": 0,
      "source": 1
    },
    {
      "sampler": 0,
      "source": 2
    },
    {
      "sampler": 0,
      "source": 3
    },
    {
      "sampler": 0,
      "source": 4
    }
  ]
}

